Normalized EMG Linear Envelopes
nRows=265
nColumns=4

endheader
time	 med_gas_r	  soleus_r	 tib_ant_r	
3.02722	  0.011659	  0.011406	  0.006713	
3.06048	  0.012008	  0.011334	  0.006759	
3.09375	  0.012379	  0.011358	  0.006840	
3.12702	  0.012723	  0.011470	  0.006919	
3.16028	  0.012990	  0.011600	  0.006976	
3.19355	  0.013108	  0.011696	  0.007034	
3.22681	  0.013084	  0.011747	  0.007120	
3.26008	  0.012972	  0.011751	  0.007240	
3.29335	  0.012735	  0.011742	  0.007374	
3.32661	  0.012338	  0.011775	  0.007497	
3.35988	  0.011865	  0.011864	  0.007582	
3.39315	  0.011370	  0.011966	  0.007585	
3.42641	  0.010913	  0.012038	  0.007509	
3.45968	  0.010551	  0.012047	  0.007402	
3.49294	  0.010314	  0.011971	  0.007310	
3.52621	  0.010174	  0.011829	  0.007251	
3.55948	  0.010070	  0.011682	  0.007221	
3.59274	  0.009968	  0.011562	  0.007184	
3.62601	  0.009890	  0.011457	  0.007120	
3.65927	  0.009877	  0.011351	  0.007028	
3.69254	  0.009960	  0.011280	  0.006904	
3.72581	  0.010141	  0.011273	  0.006767	
3.75907	  0.010427	  0.011347	  0.006655	
3.79234	  0.010817	  0.011466	  0.006584	
3.8256	  0.011276	  0.011584	  0.006522	
3.85887	  0.011736	  0.011678	  0.006435	
3.89214	  0.012102	  0.011742	  0.006344	
3.9254	  0.012289	  0.011782	  0.006270	
3.95867	  0.012286	  0.011843	  0.006235	
3.99194	  0.012143	  0.011965	  0.006256	
4.0252	  0.011919	  0.012133	  0.006337	
4.05847	  0.011665	  0.012302	  0.006457	
4.09173	  0.011412	  0.012465	  0.006569	
4.125	  0.011171	  0.012632	  0.006625	
4.15827	  0.010969	  0.012791	  0.006635	
4.19153	  0.010833	  0.012914	  0.006610	
4.2248	  0.010775	  0.012961	  0.006540	
4.25806	  0.010775	  0.012938	  0.006456	
4.29133	  0.010839	  0.012919	  0.006403	
4.3246	  0.010981	  0.012913	  0.006390	
4.35786	  0.011195	  0.012921	  0.006407	
4.39113	  0.011448	  0.012943	  0.006461	
4.4244	  0.011706	  0.013011	  0.006560	
4.45766	  0.011936	  0.013162	  0.006680	
4.49093	  0.012126	  0.013399	  0.006806	
4.52419	  0.012320	  0.013663	  0.006906	
4.55746	  0.012550	  0.013946	  0.006947	
4.59073	  0.012789	  0.014265	  0.006926	
4.62399	  0.012973	  0.014582	  0.006871	
4.65726	  0.013040	  0.014804	  0.006808	
4.69052	  0.012935	  0.014872	  0.006767	
4.72379	  0.012647	  0.014788	  0.006769	
4.75706	  0.012269	  0.014576	  0.006800	
4.79032	  0.011951	  0.014263	  0.006830	
4.82359	  0.011745	  0.013871	  0.006821	
4.85685	  0.011659	  0.013428	  0.006730	
4.89012	  0.011672	  0.012998	  0.006523	
4.92339	  0.011729	  0.012623	  0.006209	
4.95665	  0.011826	  0.012311	  0.005801	
4.98992	  0.011952	  0.012084	  0.005357	
5.02319	  0.012059	  0.012002	  0.004970	
5.05645	  0.012117	  0.012090	  0.004725	
5.08972	  0.012142	  0.012367	  0.004813	
5.12298	  0.012156	  0.012855	  0.005692	
5.15625	  0.012207	  0.013571	  0.007995	
5.18952	  0.012313	  0.014526	  0.012420	
5.22278	  0.012466	  0.015733	  0.019618	
5.25605	  0.012739	  0.017278	  0.030052	
5.28931	  0.013288	  0.019311	  0.043791	
5.32258	  0.014167	  0.021979	  0.060368	
5.35585	  0.015300	  0.025217	  0.078659	
5.38911	  0.016538	  0.028727	  0.096812	
5.42238	  0.017734	  0.032313	  0.113853	
5.45565	  0.018800	  0.035913	  0.129533	
5.48891	  0.019730	  0.039532	  0.144444	
5.52218	  0.020723	  0.043384	  0.160840	
5.55544	  0.021912	  0.047503	  0.180000	
5.58871	  0.023367	  0.051803	  0.201822	
5.62198	  0.025061	  0.056240	  0.225413	
5.65524	  0.027010	  0.060912	  0.250433	
5.68851	  0.029282	  0.066183	  0.277188	
5.72177	  0.031762	  0.072300	  0.305555	
5.75504	  0.034329	  0.079243	  0.334896	
5.78831	  0.037167	  0.086959	  0.364548	
5.82157	  0.040305	  0.095453	  0.393608	
5.85484	  0.043485	  0.104431	  0.420790	
5.8881	  0.046504	  0.113524	  0.445308	
5.92137	  0.049302	  0.122365	  0.465079	
5.95464	  0.051586	  0.130233	  0.477527	
5.9879	  0.053139	  0.136832	  0.483837	
6.02117	  0.053931	  0.142188	  0.486917	
6.05444	  0.054259	  0.145932	  0.488226	
6.0877	  0.054615	  0.147775	  0.490135	
6.12097	  0.055288	  0.147888	  0.493673	
6.15423	  0.056328	  0.146767	  0.497293	
6.1875	  0.057580	  0.145498	  0.498716	
6.22077	  0.058888	  0.144856	  0.496545	
6.25403	  0.060091	  0.145169	  0.490561	
6.2873	  0.061128	  0.146938	  0.481627	
6.32056	  0.062009	  0.150567	  0.471154	
6.35383	  0.062834	  0.156141	  0.461384	
6.3871	  0.063519	  0.162489	  0.454384	
6.42036	  0.064019	  0.168131	  0.451441	
6.45363	  0.064458	  0.172546	  0.451491	
6.4869	  0.065106	  0.175489	  0.454090	
6.52016	  0.066104	  0.176994	  0.460606	
6.55343	  0.067215	  0.176861	  0.470770	
6.58669	  0.068220	  0.175661	  0.485101	
6.61996	  0.069047	  0.174967	  0.504492	
6.65323	  0.069638	  0.175806	  0.528559	
6.68649	  0.069870	  0.178528	  0.554471	
6.71976	  0.069699	  0.182712	  0.578038	
6.75302	  0.069512	  0.188333	  0.594306	
6.78629	  0.069547	  0.195082	  0.599860	
6.81956	  0.069770	  0.202278	  0.595089	
6.85282	  0.069935	  0.208469	  0.582935	
6.88609	  0.070168	  0.213253	  0.569071	
6.91935	  0.070476	  0.217041	  0.558144	
6.95262	  0.070741	  0.220593	  0.552868	
6.98589	  0.070856	  0.224017	  0.554326	
7.01915	  0.070932	  0.226287	  0.562413	
7.05242	  0.071455	  0.227685	  0.575360	
7.08569	  0.072883	  0.230101	  0.589302	
7.11895	  0.075292	  0.234372	  0.602414	
7.15222	  0.078629	  0.241229	  0.613470	
7.18548	  0.082501	  0.250363	  0.620294	
7.21875	  0.086388	  0.260547	  0.620668	
7.25202	  0.090234	  0.271596	  0.614082	
7.28528	  0.094262	  0.284473	  0.602393	
7.31855	  0.098415	  0.299964	  0.591310	
7.35181	  0.102528	  0.317380	  0.586446	
7.38508	  0.106234	  0.334451	  0.589663	
7.41835	  0.109186	  0.349806	  0.601413	
7.45161	  0.111196	  0.361425	  0.621804	
7.48488	  0.112060	  0.367044	  0.648069	
7.51815	  0.111016	  0.365047	  0.676824	
7.55141	  0.108243	  0.357057	  0.703261	
7.58468	  0.104181	  0.345061	  0.720615	
7.61794	  0.099363	  0.331796	  0.727269	
7.65121	  0.094736	  0.320166	  0.727840	
7.68448	  0.090791	  0.310508	  0.727646	
7.71774	  0.087669	  0.302108	  0.730492	
7.75101	  0.085542	  0.295945	  0.737784	
7.78427	  0.084397	  0.292310	  0.747723	
7.81754	  0.084548	  0.292306	  0.757018	
7.85081	  0.086079	  0.296880	  0.762394	
7.88407	  0.088610	  0.304748	  0.764170	
7.91734	  0.091521	  0.314238	  0.760504	
7.9506	  0.094192	  0.323713	  0.750519	
7.98387	  0.096024	  0.331852	  0.733117	
8.01714	  0.096346	  0.337791	  0.707638	
8.0504	  0.095098	  0.341259	  0.677301	
8.08367	  0.093073	  0.343220	  0.648054	
8.11694	  0.091212	  0.345284	  0.626638	
8.1502	  0.090391	  0.350190	  0.617945	
8.18347	  0.090934	  0.358657	  0.621708	
8.21673	  0.092132	  0.367251	  0.633693	
8.25	  0.093706	  0.373693	  0.651188	
8.28327	  0.095963	  0.377899	  0.669227	
8.31653	  0.098862	  0.379826	  0.682324	
8.3498	  0.102436	  0.380764	  0.689202	
8.38306	  0.106256	  0.381624	  0.690459	
8.41633	  0.109787	  0.383362	  0.686677	
8.4496	  0.112433	  0.384870	  0.678026	
8.48286	  0.114090	  0.385371	  0.666645	
8.51613	  0.115005	  0.385145	  0.655453	
8.5494	  0.115528	  0.384468	  0.647486	
8.58266	  0.115666	  0.382458	  0.644624	
8.61593	  0.114905	  0.378012	  0.646808	
8.64919	  0.112934	  0.371575	  0.650634	
8.68246	  0.109452	  0.361626	  0.652141	
8.71573	  0.104985	  0.348542	  0.651081	
8.74899	  0.099757	  0.332270	  0.647506	
8.78226	  0.094363	  0.314278	  0.644042	
8.81552	  0.090347	  0.300639	  0.645688	
8.84879	  0.088871	  0.297345	  0.654598	
8.88206	  0.090199	  0.307395	  0.667895	
8.91532	  0.093786	  0.328900	  0.682372	
8.94859	  0.098853	  0.356735	  0.697954	
8.98185	  0.104496	  0.384713	  0.716811	
9.01512	  0.110001	  0.407061	  0.740609	
9.04839	  0.115195	  0.421427	  0.768684	
9.08165	  0.120006	  0.428430	  0.795625	
9.11492	  0.123698	  0.427412	  0.815456	
9.14819	  0.125354	  0.417869	  0.826218	
9.18145	  0.124827	  0.401437	  0.828124	
9.21472	  0.123232	  0.383886	  0.823954	
9.24798	  0.122077	  0.371546	  0.817912	
9.28125	  0.122100	  0.367789	  0.810195	
9.31452	  0.122847	  0.371689	  0.799081	
9.34778	  0.123918	  0.379725	  0.789008	
9.38105	  0.124847	  0.388485	  0.781086	
9.41431	  0.124955	  0.394679	  0.772979	
9.44758	  0.124356	  0.397774	  0.767920	
9.48085	  0.124391	  0.400947	  0.769486	
9.51411	  0.125171	  0.403925	  0.777997	
9.54738	  0.125989	  0.405136	  0.793968	
9.58065	  0.126958	  0.405953	  0.817137	
9.61391	  0.128390	  0.408944	  0.848286	
9.64718	  0.129868	  0.414272	  0.886288	
9.68044	  0.131147	  0.423190	  0.926335	
9.71371	  0.132050	  0.435458	  0.958557	
9.74698	  0.132793	  0.449417	  0.979277	
9.78024	  0.133627	  0.462024	  0.986222	
9.81351	  0.134374	  0.469086	  0.978124	
9.84677	  0.134548	  0.468603	  0.957150	
9.88004	  0.134145	  0.461851	  0.924712	
9.91331	  0.132250	  0.448041	  0.881862	
9.94657	  0.127906	  0.425492	  0.831834	
9.97984	  0.121044	  0.394940	  0.778737	
10.0131	  0.111997	  0.357816	  0.724519	
10.0464	  0.101346	  0.316707	  0.668640	
10.0796	  0.089877	  0.274890	  0.612030	
10.1129	  0.078417	  0.235641	  0.558173	
10.1462	  0.067754	  0.201267	  0.510008	
10.1794	  0.058609	  0.173223	  0.468882	
10.2127	  0.051471	  0.152180	  0.434912	
10.246	  0.046546	  0.138452	  0.407902	
10.2792	  0.043554	  0.131086	  0.386865	
10.3125	  0.041855	  0.128774	  0.369721	
10.3458	  0.040748	  0.129798	  0.353783	
10.379	  0.039931	  0.132936	  0.339221	
10.4123	  0.039116	  0.136466	  0.326133	
10.4456	  0.038157	  0.138419	  0.313692	
10.4788	  0.036944	  0.137949	  0.300593	
10.5121	  0.035294	  0.134882	  0.285647	
10.5454	  0.033107	  0.129150	  0.267917	
10.5786	  0.030746	  0.121178	  0.249623	
10.6119	  0.028581	  0.112531	  0.232510	
10.6452	  0.026646	  0.104125	  0.216653	
10.6784	  0.024883	  0.096249	  0.201524	
10.7117	  0.023352	  0.089329	  0.188392	
10.745	  0.022116	  0.083986	  0.178685	
10.7782	  0.021222	  0.080092	  0.171304	
10.8115	  0.020777	  0.076690	  0.165785	
10.8448	  0.020905	  0.074055	  0.163395	
10.878	  0.021478	  0.072588	  0.163562	
10.9113	  0.022235	  0.071775	  0.163782	
10.9446	  0.022944	  0.070944	  0.162303	
10.9778	  0.023432	  0.069456	  0.158605	
11.0111	  0.023544	  0.066879	  0.152434	
11.0444	  0.023112	  0.062624	  0.143577	
11.0776	  0.022330	  0.057478	  0.133720	
11.1109	  0.021405	  0.052751	  0.123854	
11.1442	  0.020391	  0.048899	  0.113411	
11.1774	  0.019369	  0.045863	  0.102606	
11.2107	  0.018396	  0.043295	  0.091923	
11.244	  0.017453	  0.040732	  0.081162	
11.2772	  0.016524	  0.037852	  0.070914	
11.3105	  0.015590	  0.034618	  0.062073	
11.3437	  0.014611	  0.031026	  0.054539	
11.377	  0.013611	  0.027152	  0.047277	
11.4103	  0.012713	  0.023292	  0.040079	
11.4435	  0.012063	  0.019942	  0.033773	
11.4768	  0.011692	  0.017384	  0.028677	
11.5101	  0.011538	  0.015611	  0.024683	
11.5433	  0.011534	  0.014444	  0.021404	
11.5766	  0.011616	  0.013607	  0.018568	
11.6099	  0.011718	  0.012927	  0.016172	
11.6431	  0.011766	  0.012358	  0.014351	
11.6764	  0.011690	  0.011849	  0.013118	
11.7097	  0.011525	  0.011384	  0.012407	
11.7429	  0.011351	  0.011007	  0.012138	
11.7762	  0.011194	  0.010789	  0.012212	
11.8095	  0.011072	  0.010732	  0.012480	
